{
	"asset":{
		"generator":"Khronos glTF Blender I/O v4.2.60",
		"version":"2.0"
	},
	"extensionsUsed":[
		"KHR_materials_emissive_strength"
	],
	"scene":0,
	"scenes":[
		{
			"name":"Scene",
			"nodes":[
				0,
				1,
				2
			]
		}
	],
	"nodes":[
		{
			"mesh":0,
			"name":"Text.001",
			"translation":[
				21.57902717590332,
				0,
				2
			]
		},
		{
			"mesh":1,
			"name":"Text.002",
			"rotation":[
				0.6427876353263855,
				0,
				0,
				0.7660444974899292
			],
			"translation":[
				0,
				0.30080902576446533,
				-1.81001877784729
			]
		},
		{
			"mesh":2,
			"name":"Text.003",
			"rotation":[
				0.6427876353263855,
				0,
				0,
				0.7660444974899292
			],
			"translation":[
				4.975964069366455,
				-1.3494454622268677,
				-1.3136053085327148
			]
		}
	],
	"materials":[
		{
			"doubleSided":true,
			"emissiveFactor":[
				0.7839877605438232,
				1,
				0.2556220293045044
			],
			"extensions":{
				"KHR_materials_emissive_strength":{
					"emissiveStrength":4.399999618530273
				}
			},
			"name":"Material.001",
			"pbrMetallicRoughness":{
				"baseColorFactor":[
					0.6842108964920044,
					0.8000473976135254,
					0.6581003069877625,
					1
				],
				"metallicFactor":0.15189899504184723,
				"roughnessFactor":0.5
			}
		},
		{
			"doubleSided":true,
			"emissiveFactor":[
				1,
				1,
				1
			],
			"extensions":{
				"KHR_materials_emissive_strength":{
					"emissiveStrength":5.099999904632568
				}
			},
			"name":"Material.002",
			"pbrMetallicRoughness":{
				"baseColorFactor":[
					0.8000937700271606,
					0.3315691649913788,
					0.3354553282260895,
					1
				],
				"metallicFactor":0,
				"roughnessFactor":0.5
			}
		}
	],
	"meshes":[
		{
			"name":"FDFAD.001",
			"primitives":[
				{
					"attributes":{
						"POSITION":0,
						"NORMAL":1,
						"TEXCOORD_0":2
					},
					"indices":3
				}
			]
		},
		{
			"name":"Text",
			"primitives":[
				{
					"attributes":{
						"POSITION":4,
						"NORMAL":5,
						"TEXCOORD_0":6
					},
					"indices":7,
					"material":0
				}
			]
		},
		{
			"name":"Text.001",
			"primitives":[
				{
					"attributes":{
						"POSITION":8,
						"NORMAL":9,
						"TEXCOORD_0":10
					},
					"indices":11,
					"material":1
				}
			]
		}
	],
	"accessors":[
		{
			"bufferView":0,
			"componentType":5126,
			"count":1848,
			"max":[
				5.758979320526123,
				0,
				0.12189998477697372
			],
			"min":[
				0.03392000496387482,
				0,
				-0.3678199350833893
			],
			"type":"VEC3"
		},
		{
			"bufferView":1,
			"componentType":5126,
			"count":1848,
			"type":"VEC3"
		},
		{
			"bufferView":2,
			"componentType":5126,
			"count":1848,
			"type":"VEC2"
		},
		{
			"bufferView":3,
			"componentType":5123,
			"count":5418,
			"type":"SCALAR"
		},
		{
			"bufferView":4,
			"componentType":5126,
			"count":25046,
			"max":[
				7.051523208618164,
				0.07000000774860382,
				1.1599019765853882
			],
			"min":[
				-7.0465006828308105,
				-0.07000000774860382,
				-0.7360000014305115
			],
			"type":"VEC3"
		},
		{
			"bufferView":5,
			"componentType":5126,
			"count":25046,
			"type":"VEC3"
		},
		{
			"bufferView":6,
			"componentType":5126,
			"count":25046,
			"type":"VEC2"
		},
		{
			"bufferView":7,
			"componentType":5123,
			"count":125136,
			"type":"SCALAR"
		},
		{
			"bufferView":8,
			"componentType":5126,
			"count":23427,
			"max":[
				2.034821033477783,
				0.011000014841556549,
				0.08380001038312912
			],
			"min":[
				-2.034821033477783,
				-0.011000014841556549,
				-0.2508400082588196
			],
			"type":"VEC3"
		},
		{
			"bufferView":9,
			"componentType":5126,
			"count":23427,
			"type":"VEC3"
		},
		{
			"bufferView":10,
			"componentType":5126,
			"count":23427,
			"type":"VEC2"
		},
		{
			"bufferView":11,
			"componentType":5123,
			"count":117660,
			"type":"SCALAR"
		}
	],
	"bufferViews":[
		{
			"buffer":0,
			"byteLength":22176,
			"byteOffset":0,
			"target":34962
		},
		{
			"buffer":0,
			"byteLength":22176,
			"byteOffset":22176,
			"target":34962
		},
		{
			"buffer":0,
			"byteLength":14784,
			"byteOffset":44352,
			"target":34962
		},
		{
			"buffer":0,
			"byteLength":10836,
			"byteOffset":59136,
			"target":34963
		},
		{
			"buffer":0,
			"byteLength":300552,
			"byteOffset":69972,
			"target":34962
		},
		{
			"buffer":0,
			"byteLength":300552,
			"byteOffset":370524,
			"target":34962
		},
		{
			"buffer":0,
			"byteLength":200368,
			"byteOffset":671076,
			"target":34962
		},
		{
			"buffer":0,
			"byteLength":250272,
			"byteOffset":871444,
			"target":34963
		},
		{
			"buffer":0,
			"byteLength":281124,
			"byteOffset":1121716,
			"target":34962
		},
		{
			"buffer":0,
			"byteLength":281124,
			"byteOffset":1402840,
			"target":34962
		},
		{
			"buffer":0,
			"byteLength":187416,
			"byteOffset":1683964,
			"target":34962
		},
		{
			"buffer":0,
			"byteLength":235320,
			"byteOffset":1871380,
			"target":34963
		}
	],
	"buffers":[
		{
			"byteLength":2106700,
			"uri":"ap2.bin"
		}
	]
}
